<?xml version="1.0" encoding="UTF-8" standalone="no"?>
<!-- Created with Inkscape (http://www.inkscape.org/) -->
<svg xmlns:dc="http://purl.org/dc/elements/1.1/" xmlns:cc="http://creativecommons.org/ns#" xmlns:rdf="http://www.w3.org/1999/02/22-rdf-syntax-ns#" xmlns:svg="http://www.w3.org/2000/svg" xmlns="http://www.w3.org/2000/svg" xmlns:sodipodi="http://sodipodi.sourceforge.net/DTD/sodipodi-0.dtd" xmlns:inkscape="http://www.inkscape.org/namespaces/inkscape" width="800" height="500" id="svg3570" sodipodi:version="0.32" inkscape:version="0.46" version="1.0" sodipodi:docname="phasenverschiebung_kapazitiv.svg" inkscape:output_extension="org.inkscape.output.svg.inkscape">
  <sodipodi:namedview id="base" pagecolor="#ffffff" bordercolor="#666666" borderopacity="1.0" gridtolerance="10000" guidetolerance="10" objecttolerance="10" inkscape:pageopacity="0.0" inkscape:pageshadow="2" inkscape:zoom="0.98994949" inkscape:cx="307.80062" inkscape:cy="302.55767" inkscape:document-units="px" inkscape:current-layer="layer1" showgrid="true" inkscape:window-width="1280" inkscape:window-height="961" inkscape:window-x="-4" inkscape:window-y="-4">
    <inkscape:grid type="xygrid" id="grid3590" visible="false" enabled="true"/>
  </sodipodi:namedview>
  <defs id="defs3572">
    <inkscape:perspective sodipodi:type="inkscape:persp3d" inkscape:vp_x="0 : 526.18109 : 1" inkscape:vp_y="0 : 1000 : 0" inkscape:vp_z="744.09448 : 526.18109 : 1" inkscape:persp3d-origin="372.04724 : 350.78739 : 1" id="perspective3578"/>
  </defs>
  <metadata id="metadata3575">
    <rdf:RDF>
      <cc:Work rdf:about="">
        <dc:format>image/svg+xml</dc:format>
        <dc:type rdf:resource="http://purl.org/dc/dcmitype/StillImage"/>
      </cc:Work>
    </rdf:RDF>
  </metadata>
  <g inkscape:label="Layer 1" inkscape:groupmode="layer" id="layer1">
    <path style="fill:#000000;fill-opacity:1;fill-rule:evenodd;stroke:#000000;stroke-width:1px;stroke-linecap:butt;stroke-linejoin:miter;stroke-opacity:1" d="M 20,0 L 10,40 L 30,40 L 20,0 z" id="path4107"/>
    <path style="opacity:0.89419795000000002;fill:none;fill-opacity:1;fill-rule:evenodd;stroke:#0000ff;stroke-width:5;stroke-linecap:butt;stroke-linejoin:bevel;stroke-miterlimit:4;stroke-dasharray:none;stroke-dashoffset:0;stroke-opacity:1" d=" M 20.0 250.0 C 22.5252525253 243.917792007 25.0505050505 237.835607129 27.5757575758 231.772509923 C 30.101010101 225.709412717 32.6262626263 219.665525747 35.1515151515 213.659678926 C 37.6767676768 207.653832105 40.202020202 201.686261801 42.7272727273 195.775444833 C 45.2525252525 189.864627865 47.7777777778 184.010912917 50.303030303 178.232307489 C 52.8282828283 172.453702062 55.3535353535 166.75066496 57.8787878788 161.140621091 C 60.404040404 155.530577221 62.9292929293 150.014092625 65.4545454545 144.607900003 C 67.9797979798 139.201707381 70.5050505051 133.90647645 73.0303030303 128.73814245 C 75.5555555556 123.569808449 78.0808080808 118.529140559 80.6060606061 113.631176317 C 83.1313131313 108.733212075 85.6565656566 103.978815286 88.1818181818 99.3820311926 C 90.7070707071 94.7852470988 93.2323232323 90.3470286966 95.7575757576 86.0803405829 C 98.2828282828 81.8136524691 100.808080808 77.7195308362 103.333333333 73.8097780826 C 105.858585859 69.9000253291 108.383838384 66.1757543251 110.909090909 62.6475310284 C 113.434343434 59.1193077318 115.95959596 55.7883146902 118.484848485 52.663814956 C 121.01010101 49.5393152217 123.535353535 46.6225535814 126.060606061 43.921431913 C 128.585858586 41.2203102446 131.111111111 38.7361277432 133.636363636 36.4753754063 C 136.161616162 34.2146230694 138.686868687 32.178646328 141.212121212 30.3724844679 C 143.737373737 28.5663226077 146.262626263 26.9913588323 148.787878788 25.6511490164 C 151.313131313 24.3109392004 153.838383838 23.2068956189 156.363636364 22.3410683674 C 158.888888889 21.4752411159 161.414141414 20.8490626572 163.939393939 20.4630644115 C 166.464646465 20.0770661658 168.98989899 19.9326917729 171.515151515 20.028950635 C 174.04040404 20.1252094971 176.565656566 20.4635473497 179.090909091 21.0414578082 C 181.616161616 21.6193682666 184.141414141 22.4382900681 186.666666667 23.4942168072 C 189.191919192 24.5501435463 191.717171717 25.8444979114 194.242424242 27.3717986788 C 196.767676768 28.8990994463 199.292929293 30.6607443061 201.818181818 32.6498116956 C 204.343434343 34.6388790851 206.868686869 36.8567329042 209.393939394 39.2950547906 C 211.919191919 41.7333766771 214.444444444 44.393488161 216.96969697 47.2657264071 C 219.494949495 50.1379646531 222.02020202 53.2236005087 224.545454545 56.5116874488 C 227.070707071 59.799774389 229.595959596 63.291524584 232.121212121 66.9747766779 C 234.646464646 70.6580287719 237.171717172 74.5339286329 239.696969697 78.5891765746 C 242.222222222 82.6444245162 244.747474747 86.8800928965 247.272727273 91.2818273591 C 249.797979798 95.6835618218 252.323232323 100.252354469 254.848484848 104.972886571 C 257.373737374 109.693418672 259.898989899 114.566595833 262.424242424 119.576231312 C 264.949494949 124.58586679 267.474747475 129.732773997 270.0 135.0 C 272.525252525 140.267226003 275.050505051 145.655486904 277.575757576 151.147170219 C 280.101010101 156.638853535 282.626262626 162.234573554 285.151515152 167.916169034 C 287.676767677 173.597764514 290.202020202 179.365744064 292.727272727 185.201511926 C 295.252525253 191.037279789 297.777777778 196.941235695 300.303030303 202.894466345 C 302.828282828 208.847696995 305.353535354 214.850490729 307.878787879 220.883735678 C 310.404040404 226.916980628 312.929292929 232.980851926 315.454545455 239.056159361 C 317.97979798 245.131466795 320.505050505 251.218271191 323.03030303 257.297424705 C 325.555555556 263.376578218 328.080808081 269.448026984 330.606060606 275.492785977 C 333.131313131 281.53754497 335.656565657 287.555445973 338.181818182 293.527786203 C 340.707070707 299.500126433 343.232323232 305.426624378 345.757575758 311.288977149 C 348.282828283 317.151329919 350.808080808 322.94914448 353.333333333 328.664632965 C 355.858585859 334.38012145 358.383838384 340.012781774 360.909090909 345.54545299 C 363.434343434 351.078124206 365.95959596 356.510198337 368.484848485 361.825249303 C 371.01010101 367.140300269 373.535353535 372.337618026 376.060606061 377.401614689 C 378.585858586 382.465611353 381.111111111 387.395479278 383.636363636 392.176566831 C 386.161616162 396.957654384 388.686868687 401.589061399 391.212121212 406.057164658 C 393.737373737 410.525267918 396.262626263 414.829080397 398.787878788 418.956092991 C 401.313131313 423.083105585 403.838383838 427.03225062 406.363636364 430.792211791 C 408.888888889 434.552172961 411.414141414 438.12180866 413.939393939 441.491066566 C 416.464646465 444.860324472 418.98989899 448.027996226 421.515151515 450.985356726 C 424.04040404 453.942717226 426.565656566 456.688498961 429.090909091 459.215358932 C 431.616161616 461.742218902 434.141414141 464.048838421 436.666666667 466.129302781 C 439.191919192 468.209767141 441.717171717 470.062714772 444.242424242 471.683696469 C 446.767676768 473.304678165 449.292929293 474.692298039 451.818181818 475.84360037 C 454.343434343 476.994902702 456.868686869 477.908466067 459.393939394 478.582846826 C 461.919191919 479.257227585 464.444444444 479.690987719 466.96969697 479.884204748 C 469.494949495 480.077421778 472.02020202 480.028650134 474.545454545 479.739488012 C 477.070707071 479.45032589 479.595959596 478.919329265 482.121212121 478.149606951 C 484.646464646 477.379884637 487.171717172 476.370003237 489.696969697 475.124562629 C 492.222222222 473.879122022 494.747474747 472.396708453 497.272727273 470.683383931 C 499.797979798 468.97005941 502.323232323 467.024438718 504.848484848 464.854007861 C 507.373737374 462.683577004 509.898989899 460.286988015 512.424242424 457.673103806 C 514.94949495 455.059219597 517.474747475 452.226737929 520.0 449.18584287 C 522.525252525 446.144947812 525.05050505 442.894391045 527.575757576 439.445613729 C 530.101010101 435.996836413 532.626262626 432.348652005 535.151515152 428.513686787 C 537.676767677 424.678721569 540.202020202 420.655858235 542.727272727 416.458828764 C 545.252525253 412.261799293 547.777777778 407.889562647 550.303030303 403.356870119 C 552.828282828 398.824177591 555.353535354 394.130070959 557.878787879 389.290228042 C 560.404040404 384.450385124 562.929292929 379.463936541 565.454545455 374.347388015 C 567.97979798 369.230839488 570.505050505 363.98341595 573.03030303 358.622347198 C 575.555555556 353.261278445 578.080808081 347.785888597 580.606060606 342.214023144 C 583.131313131 336.64215769 585.656565657 330.973244187 588.181818182 325.225631563 C 590.707070707 319.478018939 593.232323232 313.651241788 595.757575758 307.764037052 C 598.282828283 301.876832315 600.808080808 295.928844556 603.333333333 289.939080863 C 605.858585859 283.949317171 608.383838384 277.917534311 610.909090909 271.86288996 C 613.434343434 265.808245609 615.95959596 259.730610266 618.484848485 253.649171682 C 621.01010101 247.567733098 623.535353535 241.482476321 626.060606061 235.412498479 C 628.585858586 229.342520637 631.111111111 223.287921418 633.636363636 217.267587197 C 636.161616162 211.247252977 638.686868687 205.261397458 641.212121212 199.328577459 C 643.737373737 193.39575746 646.262626263 187.516299355 648.787878788 181.708313674 C 651.313131313 175.900327994 653.838383838 170.164251728 656.363636364 164.517635198 C 658.888888889 158.871018668 661.414141414 153.314406732 663.939393939 147.864679101 C 666.464646465 142.414951469 668.98989899 137.072757442 671.515151515 131.854199938 C 674.04040404 126.635642434 676.565656566 121.54147111 679.090909091 116.586910799 C 681.616161616 111.632350487 684.141414141 106.818246486 686.666666667 102.158849772 C 689.191919192 97.499453058 691.717171717 92.9956992514 694.242424242 88.6607758275 C 696.767676768 84.3258524037 699.292929293 80.1607794212 701.818181818 76.1775978985 C 704.343434343 72.1944163758 706.868686869 68.3942243929 709.393939394 64.7878407679 C 711.919191919 61.1814571429 714.444444444 57.7700510699 716.96969697 54.5631511116 C 719.494949495 51.3562511533 722.02020202 48.3550902632 724.545454545 45.5678468094 C 727.070707071 42.7806033556 729.595959596 40.208566295 732.121212121 37.8585123559 C 734.646464646 35.5084584169 737.171717172 33.3817244516 739.696969697 31.4836429196 C 742.222222222 29.5855613876 744.747474747 27.9175086272 747.272727273 26.4833392856 C 749.797979798 25.049169944 752.323232323 23.8502911878 754.848484848 22.8890556044 C 757.373737374 21.9278200211 759.898989899 21.2056567536 762.424242424 20.7234015311 C 764.94949495 20.2411463085 767.474747475 20.0002412604 770.0 20.0" title="sin(x)" id="path4343"/>
    <path style="fill:none;fill-rule:evenodd;stroke:#000000;stroke-width:5;stroke-linecap:butt;stroke-linejoin:miter;stroke-miterlimit:4;stroke-dasharray:none;stroke-opacity:1" d="M 620,250 L 620,270" id="path4185"/>
    <path id="path5260" title="sin(x)" d="M 20,96.666744 C 22.525253,96.666905 25.050505,96.827829 27.575758,97.149012 C 30.10101,97.470195 32.626263,97.952275 35.151515,98.592781 C 37.676768,99.233287 40.20202,100.03317 42.727273,100.98897 C 45.252525,101.94477 47.777778,103.05742 50.30303,104.32251 C 52.828283,105.58759 55.353535,107.00601 57.878788,108.57242 C 60.40404,110.13883 62.929293,111.8541 65.454545,113.71198 C 67.979798,115.56985 70.505051,117.57119 73.030303,119.70885 C 75.555556,121.8465 78.080808,124.12131 80.606061,126.5253 C 83.131313,128.9293 85.656566,131.46326 88.181818,134.11848 C 90.707071,136.77369 93.232323,139.55087 95.757576,142.44059 C 98.282828,145.33032 100.80808,148.33325 103.33333,151.43931 C 105.85859,154.54537 108.38384,157.75516 110.90909,161.05802 C 113.43434,164.36087 115.9596,167.75734 118.48485,171.23621 C 121.0101,174.71508 123.53535,178.27685 126.06061,181.90986 C 128.58586,185.54287 131.11111,189.24754 133.63636,193.01183 C 136.16162,196.77613 138.68687,200.60039 141.21212,204.47229 C 143.73737,208.34418 146.26263,212.26399 148.78788,216.21913 C 151.31313,220.17427 153.83838,224.16496 156.36364,228.17847 C 158.88889,232.19198 161.41414,236.22845 163.93939,240.27508 C 166.46465,244.32171 168.9899,248.37856 171.51515,252.43286 C 174.0404,256.48716 176.56566,260.53888 179.09091,264.57534 C 181.61616,268.6118 184.14141,272.6329 186.66667,276.62613 C 189.19192,280.61936 191.71717,284.58455 194.24242,288.50944 C 196.76768,292.43432 199.29293,296.31865 201.81818,300.1505 C 204.34343,303.98235 206.86869,307.76139 209.39394,311.47609 C 211.91919,315.1908 214.44444,318.84078 216.9697,322.41498 C 219.49495,325.98917 222.0202,329.48713 224.54545,332.89834 C 227.07071,336.30954 229.59596,339.63347 232.12121,342.86023 C 234.64646,346.08699 237.17172,349.21598 239.69697,352.23799 C 242.22222,355.26 244.74747,358.17438 247.27273,360.97263 C 249.79798,363.77088 252.32323,366.45231 254.84848,369.0092 C 257.37374,371.5661 259.89899,373.9977 262.42424,376.29715 C 264.94949,378.5966 267.47475,380.7631 270,382.79064 C 272.52525,384.81818 275.05051,386.70593 277.57576,388.44881 C 280.10101,390.19169 282.62626,391.78883 285.15152,393.23608 C 287.67677,394.68334 290.20202,395.97981 292.72727,397.12233 C 295.25253,398.26486 297.77778,399.25251 300.30303,400.08312 C 302.82828,400.91373 305.35354,401.58635 307.87879,402.09982 C 310.40404,402.61328 312.92929,402.96664 315.45455,403.15974 C 317.9798,403.35283 320.50505,403.3847 323.0303,403.25621 C 325.55556,403.12772 328.08081,402.83791 330.60606,402.38864 C 333.13131,401.93937 335.65657,401.3297 338.18182,400.56248 C 340.70707,399.79526 343.23232,398.86955 345.75758,397.78921 C 348.28283,396.70886 350.80808,395.47295 353.33333,394.08628 C 355.85859,392.69961 358.38384,391.16126 360.90909,389.47698 C 363.43434,387.7927 365.9596,385.96161 368.48485,383.99032 C 371.0101,382.01902 373.53535,379.90669 376.06061,377.66079 C 378.58586,375.41488 381.11111,373.03461 383.63636,370.52822 C 386.16162,368.02183 388.68687,365.38858 391.21212,362.63747 C 393.73737,359.88637 396.26263,357.0167 398.78788,354.03819 C 401.31313,351.05967 403.83838,347.97165 406.36364,344.78446 C 408.88889,341.59726 411.41414,338.31031 413.93939,334.93449 C 416.46465,331.55867 418.9899,328.09345 421.51515,324.55024 C 424.0404,321.00703 426.56566,317.38536 429.09091,313.69705 C 431.61616,310.00873 434.14141,306.25338 436.66667,302.44317 C 439.19192,298.63295 441.71717,294.76755 444.24242,290.8594 C 446.76768,286.95125 449.29293,283.0001 451.81818,279.0186 C 454.34343,275.0371 456.86869,271.02507 459.39394,266.99527 C 461.91919,262.96546 464.44444,258.91779 466.9697,254.86503 C 469.49495,250.81227 472.0202,246.7544 474.54545,242.70418 C 477.07071,238.65396 479.59596,234.61144 482.12121,230.58923 C 484.64646,226.56703 487.17172,222.56527 489.69697,218.59639 C 492.22222,214.6275 494.74747,210.69169 497.27273,206.80109 C 499.79798,202.91048 502.32323,199.06537 504.84848,195.27752 C 507.37374,191.48968 509.89899,187.75945 512.42424,184.09819 C 514.94949,180.43693 517.47475,176.84506 520,173.33341 C 522.52525,169.82177 525.05051,166.39084 527.57576,163.0509 C 530.10101,159.71096 532.62626,156.46256 535.15152,153.31534 C 537.67677,150.16811 540.20202,147.12267 542.72727,144.18796 C 545.25253,141.25325 547.77778,138.42993 550.30303,135.7262 C 552.82828,133.02246 555.35354,130.43902 557.87879,127.98326 C 560.40404,125.5275 562.92929,123.2002 565.45455,121.00787 C 567.9798,118.81554 570.50505,116.759 573.0303,114.8439 C 575.55556,112.92879 578.08081,111.15596 580.60606,109.53011 C 583.13131,107.90427 585.65657,106.4263 588.18182,105.09995 C 590.70707,103.7736 593.23232,102.59979 595.75758,101.58128 C 598.28283,100.56276 600.80808,99.70049 603.33333,98.996222 C 605.85859,98.291954 608.38384,97.746643 610.90909,97.361049 C 613.43434,96.975456 615.9596,96.750539 618.48485,96.686045 C 621.0101,96.62155 623.53535,96.718443 626.06061,96.975454 C 628.58586,97.232465 631.11111,97.650557 633.63636,98.227457 C 636.16162,98.804356 638.68687,99.541018 641.21212,100.43418 C 643.73737,101.32734 646.26263,102.37793 648.78788,103.58173 C 651.31313,104.78553 653.83838,106.14346 656.36364,107.65033 C 658.88889,109.1572 661.41414,110.81391 663.93939,112.61437 C 666.46465,114.41483 668.9899,116.3599 671.51515,118.44262 C 674.0404,120.52534 676.56566,122.74654 679.09091,125.09843 C 681.61616,127.45032 684.14141,129.93367 686.66667,132.53993 C 689.19192,135.14619 691.71717,137.87608 694.24242,140.7203 C 696.76768,143.56453 699.29293,146.52379 701.81818,149.5881 C 704.34343,152.65241 706.86869,155.82241 709.39394,159.08753 C 711.91919,162.35265 714.44444,165.71345 716.9697,169.15884 C 719.49495,172.60423 722.0202,176.1347 724.54545,179.73868 C 727.07071,183.34266 729.59596,187.02059 732.12121,190.76049 C 734.64646,194.5004 737.17172,198.30265 739.69697,202.15495 C 742.22222,206.00725 744.74747,209.90991 747.27273,213.85037 C 749.79798,217.79084 752.32323,221.76935 754.84848,225.7732 C 757.37374,229.77704 759.89899,233.80638 762.42424,237.84842 C 764.94949,241.89046 767.47475,245.94527 770,250.00008" style="opacity:0.89419795;fill:none;fill-opacity:1;fill-rule:evenodd;stroke:#ff0000;stroke-width:5;stroke-linecap:butt;stroke-linejoin:bevel;stroke-miterlimit:4;stroke-dasharray:none;stroke-dashoffset:0;stroke-opacity:1"/>
    <path style="fill:none;fill-rule:evenodd;stroke:#000000;stroke-width:5;stroke-linecap:butt;stroke-linejoin:miter;stroke-opacity:1;stroke-miterlimit:4;stroke-dasharray:none" d="M 20,10 L 20,480" id="path3592"/>
    <text xml:space="preserve" style="font-size:36px;font-style:normal;font-weight:normal;fill:#000000;fill-opacity:1;stroke:none;stroke-width:1px;stroke-linecap:butt;stroke-linejoin:miter;stroke-opacity:1;font-family:Bitstream Vera Sans" x="590" y="300" id="text4209"><tspan sodipodi:role="line" id="tspan4211" x="590" y="300">360째</tspan></text>
    <path style="fill:none;fill-rule:evenodd;stroke:#000000;stroke-width:5;stroke-linecap:butt;stroke-linejoin:miter;stroke-miterlimit:4;stroke-dasharray:none;stroke-opacity:1" d="M 470,250 L 470,270" id="path4195"/>
    <path style="fill:none;fill-rule:evenodd;stroke:#000000;stroke-width:5;stroke-linecap:butt;stroke-linejoin:miter;stroke-miterlimit:4;stroke-dasharray:none;stroke-opacity:1" d="M 0,250 L 780,250" id="path3594"/>
    <path style="fill:none;fill-rule:evenodd;stroke:#000000;stroke-width:5;stroke-linecap:butt;stroke-linejoin:miter;stroke-miterlimit:4;stroke-dasharray:none;stroke-opacity:1" d="M 320,250 L 320,270" id="path4187"/>
    <text xml:space="preserve" style="font-size:36px;font-style:normal;font-weight:normal;fill:#000000;fill-opacity:1;stroke:none;stroke-width:1px;stroke-linecap:butt;stroke-linejoin:miter;stroke-opacity:1;font-family:Bitstream Vera Sans" x="290" y="300" id="text4201"><tspan sodipodi:role="line" id="tspan4203" x="290" y="300">180째</tspan></text>
    <path style="fill:none;fill-rule:evenodd;stroke:#000000;stroke-width:5;stroke-linecap:butt;stroke-linejoin:miter;stroke-miterlimit:4;stroke-dasharray:none;stroke-opacity:1" d="M 170,250 L 170,270" id="path4189"/>
    <path style="fill:#000000;fill-opacity:1;fill-rule:evenodd;stroke:#000000;stroke-width:1px;stroke-linecap:butt;stroke-linejoin:miter;stroke-opacity:1" d="M 800,250 L 760,240 L 760,260 L 800,250 z" id="path4105"/>
    <text xml:space="preserve" style="font-size:36px;font-style:normal;font-weight:normal;fill:#000000;fill-opacity:1;stroke:none;stroke-width:1px;stroke-linecap:butt;stroke-linejoin:miter;stroke-opacity:1;font-family:Bitstream Vera Sans" x="150" y="300" id="text4197"><tspan sodipodi:role="line" id="tspan4199" x="150" y="300">90째</tspan></text>
    <text xml:space="preserve" style="font-size:36px;font-style:normal;font-weight:normal;fill:#000000;fill-opacity:1;stroke:none;stroke-width:1px;stroke-linecap:butt;stroke-linejoin:miter;stroke-opacity:1;font-family:Bitstream Vera Sans" x="440" y="300" id="text4205"><tspan sodipodi:role="line" id="tspan4207" x="440" y="300">270째</tspan></text>
    <path style="fill:none;fill-rule:evenodd;stroke:#0000ff;stroke-width:5;stroke-linecap:butt;stroke-linejoin:miter;stroke-opacity:1;stroke-miterlimit:4;stroke-dasharray:none" d="M 440,30 L 470,30" id="path5286"/>
    <path style="fill:none;fill-rule:evenodd;stroke:#ff0000;stroke-width:5;stroke-linecap:butt;stroke-linejoin:miter;stroke-miterlimit:4;stroke-dasharray:none;stroke-opacity:1" d="M 440,70 L 470,70" id="path5288"/>
    <text xml:space="preserve" style="font-size:36px;font-style:normal;font-weight:normal;fill:#000000;fill-opacity:1;stroke:none;stroke-width:1px;stroke-linecap:butt;stroke-linejoin:miter;stroke-opacity:1;font-family:Bitstream Vera Sans" x="480" y="40" id="text5290"><tspan sodipodi:role="line" id="tspan5292" x="480" y="40">Spannung</tspan></text>
    <text xml:space="preserve" style="font-size:36px;font-style:normal;font-weight:normal;fill:#000000;fill-opacity:1;stroke:none;stroke-width:1px;stroke-linecap:butt;stroke-linejoin:miter;stroke-opacity:1;font-family:Bitstream Vera Sans" x="480" y="80" id="text5294"><tspan sodipodi:role="line" id="tspan5296" x="480" y="80">Strom</tspan></text>
  </g>
</svg>